<svg width="10" height="19" viewBox="0 0 10 19" fill="none" xmlns="http://www.w3.org/2000/svg">
<path d="M2.61343 3.59718C2.61343 4.06519 2.61343 6.1541 2.61343 6.1541H0.727051V9.28072H2.61343V18.5719H6.48846V9.28098H9.08879C9.08879 9.28098 9.33232 7.78179 9.45037 6.14258C9.11192 6.14258 6.50312 6.14258 6.50312 6.14258C6.50312 6.14258 6.50312 4.32361 6.50312 4.00478C6.50312 3.68527 6.92561 3.25547 7.34319 3.25547C7.75999 3.25547 8.63968 3.25547 9.45446 3.25547C9.45446 2.82978 9.45446 1.35892 9.45446 0.000488292C8.36676 0.000488292 7.12932 0.000488292 6.58386 0.000488292C2.51765 0.000272402 2.61343 3.13 2.61343 3.59718Z" fill="white"/>
</svg>
