<svg width="14" height="14" viewBox="0 0 14 14" fill="none" xmlns="http://www.w3.org/2000/svg">
<path d="M12.347 2.17966C11.4639 1.22238 10.2959 0.743652 8.84377 0.743652C8.30873 0.743652 7.82237 0.80901 7.38491 0.939815C6.94759 1.07053 6.57822 1.25393 6.27663 1.49011C5.97522 1.72628 5.73516 1.94553 5.55695 2.14785C5.38748 2.34002 5.22176 2.56388 5.06006 2.81711V1.03442H0.868652L0.881503 1.64174C0.890114 2.04669 0.894354 3.29482 0.894354 5.38632C0.894354 7.47799 0.885876 10.2063 0.868831 13.5714H5.06006V6.57539C5.06006 6.14536 5.10651 5.80386 5.20012 5.55062C5.3786 5.12028 5.64797 4.75999 6.00913 4.46914C6.37024 4.17793 6.8181 4.03246 7.35332 4.03246C8.08348 4.03246 8.62085 4.28335 8.96487 4.78516C9.30876 5.28693 9.48072 5.98066 9.48072 6.86624V13.571H13.672V6.38583C13.6716 4.53862 13.2303 3.13664 12.347 2.17966Z" fill="white"/>
</svg>
