<svg width="22" height="18" viewBox="0 0 22 18" fill="none" xmlns="http://www.w3.org/2000/svg">
<path d="M21.2726 2.8345C20.5155 3.17008 19.7031 3.39767 18.8495 3.49928C19.721 2.97722 20.3882 2.14917 20.7044 1.16552C19.8869 1.64897 18.9844 2.00002 18.0229 2.19033C17.2529 1.3687 16.1577 0.856934 14.9429 0.856934C12.6123 0.856934 10.7227 2.74708 10.7227 5.07697C10.7227 5.40741 10.7599 5.73015 10.8319 6.03877C7.32518 5.86259 4.21563 4.18204 2.13445 1.6284C1.77065 2.25075 1.56369 2.97591 1.56369 3.75C1.56369 5.21455 2.30928 6.50679 3.4405 7.26282C2.74891 7.23969 2.09845 7.04939 1.52901 6.73307V6.78579C1.52901 8.83023 2.98417 10.5365 4.91365 10.9248C4.56014 11.02 4.18736 11.0727 3.80171 11.0727C3.52921 11.0727 3.26568 11.0457 3.00729 10.9943C3.54461 12.6722 5.10262 13.8925 6.94858 13.9259C5.50498 15.0574 3.68474 15.7299 1.70769 15.7299C1.36706 15.7299 1.03153 15.7094 0.701172 15.6721C2.56897 16.8717 4.78642 17.5712 7.16969 17.5712C14.9327 17.5712 19.176 11.1396 19.176 5.56174L19.1619 5.01527C19.991 4.42376 20.7083 3.68057 21.2726 2.8345Z" fill="white"/>
</svg>
